<?xml version="1.0" encoding="UTF-8"?>
<svg width="1440px" height="760px" viewBox="0 0 1440 760" version="1.1" xmlns="http://www.w3.org/2000/svg" xmlns:xlink="http://www.w3.org/1999/xlink" style="background: #FEF6D0;">
    <!-- Generator: Sketch 43.2 (39069) - http://www.bohemiancoding.com/sketch -->
    <title>Weather background</title>
    <desc>Created with Sketch.</desc>
    <defs>
        <linearGradient x1="0%" y1="100%" x2="100%" y2="0%" id="linearGradient-1">
            <stop stop-color="#FBDA61" offset="0%"></stop>
            <stop stop-color="#F76B1C" offset="100%"></stop>
        </linearGradient>
    </defs>
    <g id="Page-1" stroke="none" stroke-width="1" fill="none" fill-rule="evenodd">
        <g id="Weather-background">
            <rect id="Rectangle-2" fill-opacity="0.200000003" fill="url(#linearGradient-1)" x="0" y="0" width="1440" height="760"></rect>
            <g id="Fog" transform="translate(0.000000, 290.000000)" fill="#FFFFFF">
                <path d="M0,7 C0,7 58.9062664,-7.6611774 320,7 C581.093734,21.6611774 568.45224,54 869,54 C1169.54776,54 1440,7 1440,7 L1440,470 L0,470 L0,7 Z" id="Rectangle" fill-opacity="0.400000006"></path>
                <path d="M0,50 C0,50 58.9062664,12.3388226 320,27 C470.185125,35.4333344 524.252642,81.1342352 605,85 C685.747358,88.8657648 741.331927,50 869,50 C967.463077,50 1078.44875,83.8453252 1162,85 C1245.55125,86.1546748 1440,58 1440,58 L1440,470 L0,470 L0,50 Z" id="Rectangle" fill-opacity="0.599999964" transform="translate(720.000000, 246.805723) scale(-1, 1) translate(-720.000000, -246.805723) "></path>
                <path d="M0,52 C0,52 58.9062664,14.3388226 320,29 C470.185125,37.4333344 524.252642,83.1342352 605,87 C685.747358,90.8657648 741.331927,52 869,52 C967.463077,52 1078.44875,85.8453252 1162,87 C1245.55125,88.1546748 1440,60 1440,60 L1440,472 L0,472 L0,52 Z" id="Rectangle" fill-opacity="0.5"></path>
            </g>
            <g id="Sun" transform="translate(81.000000, 60.000000)">
                <circle id="Oval" fill="#FFD96A" cx="76" cy="76" r="37"></circle>
                <circle id="Oval" stroke="#FFD86A" stroke-dasharray="21,12,30,13" cx="76" cy="76" r="53"></circle>
                <circle id="Oval" stroke="#FFD86A" stroke-width="1.5" stroke-linecap="round" stroke-linejoin="round" stroke-dasharray="7,12,30,13" cx="76.5" cy="76.5" r="44.5"></circle>
                <circle id="Oval" stroke="#FFD86A" stroke-width="0.5" stroke-dasharray="1,11,24,31" transform="translate(76.500000, 76.500000) rotate(20.000000) translate(-76.500000, -76.500000) " cx="76.5" cy="76.5" r="59.5"></circle>
            </g>
        </g>
    </g>
</svg>